<svg width="64" height="64" viewBox="0 0 64 64" fill="none" xmlns="http://www.w3.org/2000/svg">
  <defs>
    <linearGradient id="bgGradient" x1="0%" y1="0%" x2="100%" y2="100%">
      <stop offset="0%" style="stop-color:#2563eb;stop-opacity:1" />
      <stop offset="100%" style="stop-color:#9333ea;stop-opacity:1" />
    </linearGradient>
  </defs>
  
  <!-- Background Circle -->
  <circle cx="32" cy="32" r="30" fill="url(#bgGradient)"/>
  
  <!-- Pen -->
  <g transform="translate(32, 32) rotate(-35)">
    <rect x="-2.5" y="-18" width="5" height="28" rx="1.5" fill="#1e293b"/>
    <path d="M -2.5 10 L 0 14 L 2.5 10 Z" fill="#64748b"/>
    <rect x="-3" y="-20" width="6" height="4" rx="1.5" fill="#475569"/>
    <rect x="2.5" y="-18" width="1.5" height="8" rx="0.8" fill="#94a3b8"/>
    <rect x="-2.5" y="-10" width="5" height="1.5" fill="#fbbf24"/>
  </g>
  
  <!-- Writing lines -->
  <path d="M 16 40 Q 24 38, 32 40 Q 40 42, 48 40" stroke="white" stroke-width="2" fill="none" stroke-linecap="round" opacity="0.85"/>
  <path d="M 18 45 Q 26 43, 34 45 Q 42 47, 48 45" stroke="white" stroke-width="1.5" fill="none" stroke-linecap="round" opacity="0.6"/>
  
  <!-- Sparkles -->
  <circle cx="14" cy="20" r="2.5" fill="#fbbf24" opacity="0.9"/>
  <circle cx="50" cy="24" r="2" fill="#fcd34d" opacity="0.9"/>
  <circle cx="20" cy="50" r="2" fill="white" opacity="0.8"/>
  
  <!-- Stars -->
  <path d="M 12 28 L 13 30 L 15 31 L 13 32 L 12 34 L 11 32 L 9 31 L 11 30 Z" fill="white" opacity="0.9"/>
  <path d="M 52 16 L 53 18 L 55 19 L 53 20 L 52 22 L 51 20 L 49 19 L 51 18 Z" fill="#fbbf24" opacity="0.9"/>
</svg>
